<?xml version="1.0" encoding="utf-8"?>
<!-- Generator: Adobe Illustrator 28.0.0, SVG Export Plug-In . SVG Version: 6.00 Build 0)  -->
<svg version="1.1" id="Layer_1" xmlns="http://www.w3.org/2000/svg" xmlns:xlink="http://www.w3.org/1999/xlink" x="0px" y="0px"
	 viewBox="0 0 136.9 137.2" style="enable-background:new 0 0 136.9 137.2;" xml:space="preserve">
<style type="text/css">
	.st0{fill:#05472A;}
	.st1{fill:#05472A;stroke:#000000;stroke-width:0.25;stroke-miterlimit:10;}
</style>
<rect x="1.5" y="66.1" class="st0" width="17.9" height="4.4"/>
<path class="st0" d="M38.9,49.6L19.5,19.1h-0.1v51.2h-4.9V13.5V0.9l24.4,38H39L63.2,2.2v11.2l0.1,49.3h-4.9L58.3,19h-0.1"/>
<path class="st0" d="M86.5,82L86.5,82l-0.1,48.7h-4.8V75.5v-9.4l35.1,54.4h0.1V66.3h4.8V127v8.5L86.5,82z"/>
<polyline class="st0" points="135,70.1 116.8,70.1 116.8,66.1 135,66.1 "/>
<path class="st0" d="M71.2,67.9"/>
<path class="st0" d="M92.9,84.2"/>
<path class="st0" d="M45.2,66.1h32.1v4.2H63.7V118h-4.9V70.3H45.2V66.1z"/>
<path class="st1" d="M58.8,70.3"/>
<path class="st1" d="M45.2,70.3"/>
</svg>
